<?xml version="1.0" encoding="iso-8859-1"?>
<!-- Generator: Adobe Illustrator 16.0.0, SVG Export Plug-In . SVG Version: 6.00 Build 0)  -->
<!DOCTYPE svg PUBLIC "-//W3C//DTD SVG 1.1//EN" "http://www.w3.org/Graphics/SVG/1.1/DTD/svg11.dtd">
<svg version="1.1" id="Capa_1" xmlns="http://www.w3.org/2000/svg" xmlns:xlink="http://www.w3.org/1999/xlink" x="0px" y="0px"
	 width="485.213px" height="485.212px" viewBox="0 0 485.213 485.212" style="enable-background:new 0 0 485.213 485.212;"
	 xml:space="preserve">
<g>
	<g>
		<path d="M242.606,333.584c50.231,0,90.979-40.721,90.979-90.979V90.978C333.586,40.734,292.838,0,242.606,0
			c-50.244,0-90.978,40.734-90.978,90.978v151.628C151.628,292.864,192.363,333.584,242.606,333.584z"/>
		<path d="M379.076,181.955c-8.387,0-15.168,6.781-15.168,15.164v45.487c0,66.989-54.311,121.3-121.302,121.3
			c-66.989,0-121.302-54.311-121.302-121.3v-45.487c0-8.382-6.781-15.164-15.166-15.164c-8.38,0-15.161,6.781-15.161,15.164v45.487
			c0,73.682,52.596,134.984,122.252,148.668v37.817c-27.365,8.531-50.199,28.759-61.601,56.121h60.654
			c0-16.759,13.579-30.326,30.324-30.326c16.745,0,30.326,13.567,30.326,30.326h60.653c-11.135-26.709-33.201-46.526-59.705-55.407
			v-38.854c68.731-14.426,120.354-75.312,120.354-148.346v-45.487C394.235,188.736,387.454,181.955,379.076,181.955z"/>
	</g>
</g>
<g>
</g>
<g>
</g>
<g>
</g>
<g>
</g>
<g>
</g>
<g>
</g>
<g>
</g>
<g>
</g>
<g>
</g>
<g>
</g>
<g>
</g>
<g>
</g>
<g>
</g>
<g>
</g>
<g>
</g>
</svg>
